{
  "accessors": [
    {
      "bufferView": 2,
      "componentType": 5126,
      "count": 1949,
      "max": [
        0.019999997690320015,
        0.04483894631266594,
        0.0029176189564168453
      ],
      "min": [
        -0.019999997690320015,
        -0.01999998837709427,
        -0.007086819037795067
      ],
      "type": "VEC3"
    },
    {
      "bufferView": 2,
      "byteOffset": 23388,
      "componentType": 5126,
      "count": 1949,
      "max": [
        0.9999192953109741,
        0.9942703247070313,
        1.0
      ],
      "min": [
        -0.9986947774887085,
        -0.9855294227600098,
        -1.0
      ],
      "type": "VEC3"
    },
    {
      "bufferView": 1,
      "componentType": 5126,
      "count": 1949,
      "max": [
        0.9929154515266418,
        0.9949047565460205
      ],
      "min": [
        0.00862005352973938,
        0.011528640985488892
      ],
      "type": "VEC2"
    },
    {
      "bufferView": 0,
      "componentType": 5125,
      "count": 8766,
      "type": "SCALAR"
    },
    {
      "bufferView": 2,
      "byteOffset": 46776,
      "componentType": 5126,
      "count": 4,
      "max": [
        0.2583003342151642,
        0.3800719082355499,
        -0.1785380244255066
      ],
      "min": [
        -0.39030060172080994,
        -0.2914092242717743,
        -0.35233014822006226
      ],
      "type": "VEC3"
    },
    {
      "bufferView": 2,
      "byteOffset": 46824,
      "componentType": 5126,
      "count": 4,
      "max": [
        0.2588191032409668,
        0.0,
        0.9659258127212524
      ],
      "min": [
        0.2588191032409668,
        0.0,
        0.9659258127212524
      ],
      "type": "VEC3"
    },
    {
      "bufferView": 1,
      "byteOffset": 15592,
      "componentType": 5126,
      "count": 4,
      "max": [
        1.0,
        1.0
      ],
      "min": [
        0.0,
        0.0
      ],
      "type": "VEC2"
    },
    {
      "bufferView": 0,
      "byteOffset": 35064,
      "componentType": 5125,
      "count": 6,
      "type": "SCALAR"
    },
    {
      "bufferView": 2,
      "byteOffset": 46872,
      "componentType": 5126,
      "count": 4,
      "max": [
        0.39764404296875,
        0.3800719082355499,
        0.3414997458457947
      ],
      "min": [
        -0.2509569525718689,
        -0.2914092242717743,
        0.1677073985338211
      ],
      "type": "VEC3"
    },
    {
      "bufferView": 2,
      "byteOffset": 46920,
      "componentType": 5126,
      "count": 4,
      "max": [
        -0.2588190734386444,
        3.532064738465124e-07,
        -0.9659258127212524
      ],
      "min": [
        -0.2588190734386444,
        3.532064738465124e-07,
        -0.9659258127212524
      ],
      "type": "VEC3"
    },
    {
      "bufferView": 1,
      "byteOffset": 15624,
      "componentType": 5126,
      "count": 4,
      "max": [
        1.0,
        1.0
      ],
      "min": [
        0.0,
        0.0
      ],
      "type": "VEC2"
    },
    {
      "bufferView": 0,
      "byteOffset": 35088,
      "componentType": 5125,
      "count": 6,
      "type": "SCALAR"
    }
  ],
  "asset": {
    "extras": {
      "author": "AyyZerr (https://sketchfab.com/AyyZerr)",
      "license": "CC-BY-4.0 (http://creativecommons.org/licenses/by/4.0/)",
      "source": "https://sketchfab.com/3d-models/handpainted-nightday-pendant-223db3cfcab543e7b3a929ba240d9f0d",
      "title": "Handpainted Night/Day Pendant"
    },
    "generator": "Sketchfab-12.66.0",
    "version": "2.0"
  },
  "bufferViews": [
    {
      "buffer": 0,
      "byteLength": 35112,
      "name": "floatBufferViews",
      "target": 34963
    },
    {
      "buffer": 0,
      "byteLength": 15656,
      "byteOffset": 35112,
      "byteStride": 8,
      "name": "floatBufferViews",
      "target": 34962
    },
    {
      "buffer": 0,
      "byteLength": 46968,
      "byteOffset": 50768,
      "byteStride": 12,
      "name": "floatBufferViews",
      "target": 34962
    }
  ],
  "buffers": [
    {
      "byteLength": 97736,
      "uri": "scene.bin"
    }
  ],
  "extensionsUsed": [
    "KHR_materials_unlit"
  ],
  "images": [
    {
      "uri": "textures/M_Sunflower_Pendant_baseColor.png"
    },
    {
      "uri": "textures/M_BG_01a_baseColor.png"
    }
  ],
  "materials": [
    {
      "doubleSided": true,
      "emissiveFactor": [
        1.0,
        1.0,
        1.0
      ],
      "emissiveTexture": {
        "index": 0
      },
      "extensions": {
        "KHR_materials_unlit": {}
      },
      "name": "M_Sunflower_Pendant",
      "pbrMetallicRoughness": {
        "baseColorTexture": {
          "index": 0
        },
        "metallicFactor": 0.0
      }
    },
    {
      "alphaMode": "BLEND",
      "extensions": {
        "KHR_materials_unlit": {}
      },
      "name": "M_BG_01a",
      "pbrMetallicRoughness": {
        "baseColorFactor": [
          0.5329208617282817,
          0.34462400092333245,
          0.17224982099484787,
          1.0
        ],
        "baseColorTexture": {
          "index": 1
        },
        "metallicFactor": 0.0
      }
    },
    {
      "alphaMode": "BLEND",
      "extensions": {
        "KHR_materials_unlit": {}
      },
      "name": "M_BG_02a",
      "pbrMetallicRoughness": {
        "baseColorFactor": [
          0.1477869452,
          0.2335495104,
          0.2953043464,
          1.0
        ],
        "baseColorTexture": {
          "index": 1
        },
        "metallicFactor": 0.0
      }
    }
  ],
  "meshes": [
    {
      "name": "BezierCircle_M_Sunflower_Pendant_0",
      "primitives": [
        {
          "attributes": {
            "NORMAL": 1,
            "POSITION": 0,
            "TEXCOORD_0": 2
          },
          "indices": 3,
          "material": 0,
          "mode": 4
        }
      ]
    },
    {
      "name": "Plane_M_BG_01a_0",
      "primitives": [
        {
          "attributes": {
            "NORMAL": 5,
            "POSITION": 4,
            "TEXCOORD_0": 6
          },
          "indices": 7,
          "material": 1,
          "mode": 4
        }
      ]
    },
    {
      "name": "Plane.001_M_BG_02a_0",
      "primitives": [
        {
          "attributes": {
            "NORMAL": 9,
            "POSITION": 8,
            "TEXCOORD_0": 10
          },
          "indices": 11,
          "material": 2,
          "mode": 4
        }
      ]
    }
  ],
  "nodes": [
    {
      "children": [
        1
      ],
      "matrix": [
        -0.005324019119143486,
        -0.8648297190666198,
        -0.502037048339844,
        0.0,
        0.0,
        -0.5020441412925722,
        0.8648419976234435,
        0.0,
        -0.9999858140945435,
        0.0046044355258345595,
        0.0026728929951787004,
        0.0,
        -1.0401018857955933,
        -0.8665728569030761,
        -0.6240588426589968,
        1.0
      ],
      "name": "Sketchfab_model"
    },
    {
      "children": [
        2
      ],
      "matrix": [
        1.0,
        0.0,
        0.0,
        0.0,
        0.0,
        -1.0,
        0.0,
        0.0,
        0.0,
        0.0,
        -1.0,
        0.0,
        0.0,
        0.0,
        0.0,
        1.0
      ],
      "name": "94d65293dcfa4b8997a960f07a01107c.fbx"
    },
    {
      "children": [
        3,
        5,
        7
      ],
      "name": "RootNode"
    },
    {
      "children": [
        4
      ],
      "matrix": [
        -1.629206793918314e-05,
        99.99999999999868,
        0.0,
        0.0,
        -99.99999999999868,
        -1.629206793918314e-05,
        0.0,
        0.0,
        0.0,
        0.0,
        100.0,
        0.0,
        0.0,
        0.0,
        0.0,
        1.0
      ],
      "name": "BezierCircle"
    },
    {
      "mesh": 0,
      "name": "BezierCircle_M_Sunflower_Pendant_0"
    },
    {
      "children": [
        6
      ],
      "matrix": [
        -1.629206793918314e-05,
        99.99999999999868,
        0.0,
        0.0,
        -99.99999999999868,
        -1.629206793918314e-05,
        0.0,
        0.0,
        0.0,
        0.0,
        100.0,
        0.0,
        0.0,
        0.0,
        0.0,
        1.0
      ],
      "name": "Plane"
    },
    {
      "mesh": 1,
      "name": "Plane_M_BG_01a_0"
    },
    {
      "children": [
        8
      ],
      "matrix": [
        -1.629206793918314e-05,
        99.99999999999868,
        0.0,
        0.0,
        -99.99999999999868,
        -1.629206793918314e-05,
        0.0,
        0.0,
        0.0,
        0.0,
        100.0,
        0.0,
        0.0,
        0.0,
        0.0,
        1.0
      ],
      "name": "Plane.001"
    },
    {
      "mesh": 2,
      "name": "Plane.001_M_BG_02a_0"
    }
  ],
  "samplers": [
    {
      "magFilter": 9729,
      "minFilter": 9987,
      "wrapS": 10497,
      "wrapT": 10497
    }
  ],
  "scene": 0,
  "scenes": [
    {
      "name": "Sketchfab_Scene",
      "nodes": [
        0
      ]
    }
  ],
  "textures": [
    {
      "sampler": 0,
      "source": 0
    },
    {
      "sampler": 0,
      "source": 1
    }
  ]
}
